<svg xmlns="http://www.w3.org/2000/svg" xmlns:xlink="http://www.w3.org/1999/xlink" width="100" height="20" viewBox="0 0 100 20">
  <defs>
    <clipPath id="clip-path">
      <rect id="box" width="100" height="20" transform="translate(-19663 -19967)" fill="red" opacity="0.6"/>
    </clipPath>
  </defs>
  <g id="logo_rack_white" transform="translate(19663 19967)" clip-path="url(#clip-path)">
    <g id="logo">
      <g id="logo_type" transform="translate(-19662.6 -19967.1)">
        <path id="K" d="M521.772,21.03c-.24,0-.373-.133-.373-.4V2.368c0-.267.133-.4.373-.4h2.453c.24,0,.373.133.373.4V10.1l6.665-7.891a.645.645,0,0,1,.48-.24h3.119c.347,0,.453.213.24.48l-7.065,8.025,7.651,10.078c.213.267.053.48-.24.48H532.33a.488.488,0,0,1-.48-.24l-5.919-7.972-1.333,1.44V20.63c0,.267-.133.4-.373.4Z" transform="translate(-436.639 -1.447)" fill="#fff"/>
        <path id="C" d="M420.125,19.7c-3.973,0-7.358-2.106-7.358-6.8V6.824c0-4.692,3.413-6.825,7.3-6.825a10.12,10.12,0,0,1,5.705,1.786.357.357,0,0,1,.08.533L424.6,4.131c-.133.24-.32.24-.56.106a7.07,7.07,0,0,0-3.972-1.2c-2.586,0-4.079,1.439-4.079,3.812v5.972c0,2.426,1.52,3.839,4.106,3.839a7.766,7.766,0,0,0,4.426-1.386.318.318,0,0,1,.533.107l1.253,1.813a.386.386,0,0,1-.053.56,10.072,10.072,0,0,1-6.132,1.946" transform="translate(-345.666 0.201)" fill="#fff"/>
        <path id="A" d="M292.726,21.029c-.293,0-.4-.16-.32-.453l6.4-18.289a.425.425,0,0,1,.427-.32h3.039a.425.425,0,0,1,.427.32l6.4,18.289c.08.293-.053.453-.32.453h-2.613a.435.435,0,0,1-.453-.32L304.4,16.684h-7.3l-1.306,4.026a.456.456,0,0,1-.453.32ZM298,13.778H303.5L300.8,5.486H300.7Z" transform="translate(-244.85 -1.445)" fill="#fff"/>
        <path id="R" d="M203.306,21.029a.5.5,0,0,1-.453-.267l-4.666-6.692h-2.373v6.559c0,.267-.133.4-.373.4h-2.453c-.24,0-.373-.133-.373-.4V2.367c0-.267.133-.4.373-.4h6.185c4.372,0,6.932,2.266,6.932,6.079a5.53,5.53,0,0,1-4.426,5.679l4.879,6.825c.187.293.053.48-.24.48Zm-7.491-16.1v6.265h3.359c2.479,0,3.652-.986,3.652-3.119,0-2.159-1.173-3.146-3.652-3.146Z" transform="translate(-161.303 -1.445)" fill="#fff"/>
      </g>
      <g id="logo_mark" transform="translate(-19662.6 -19967)">
        <path id="パス_1355" data-name="パス 1355" d="M14.082,70.965a15.12,15.12,0,0,1-1.679.5,2.741,2.741,0,0,1-.536.04,2.743,2.743,0,0,1-.536-.04,15.128,15.128,0,0,1-1.679-.5l-2.611-.979a2.723,2.723,0,0,0-1.644,0L.822,71.7A1.365,1.365,0,0,0,0,72.888v.358a1.365,1.365,0,0,0,.822,1.186L10.883,78.2a2.72,2.72,0,0,0,1.644,0l10.06-3.773a1.365,1.365,0,0,0,.822-1.186v-.358a1.365,1.365,0,0,0-.822-1.186l-4.413-1.655a2.723,2.723,0,0,0-1.644,0Z" transform="translate(0 -58.502)" fill="#fff"/>
        <path id="パス_1356" data-name="パス 1356" d="M23.409,7.292a1.365,1.365,0,0,0-.822-1.186L12.526,2.333a2.72,2.72,0,0,0-1.644,0L.822,6.106A1.365,1.365,0,0,0,0,7.292v.358A1.365,1.365,0,0,0,.822,8.835l10.061,3.773a2.72,2.72,0,0,0,1.644,0L22.587,8.835a1.365,1.365,0,0,0,.822-1.186Z" transform="translate(0 -1.848)" fill="#fff"/>
      </g>
    </g>
  </g>
</svg>
